<svg width="24" height="24" viewBox="0 0 24 24" fill="none" xmlns="http://www.w3.org/2000/svg">
<path d="M5.19877 5.15663H9.40915C9.6883 5.15663 9.95603 5.26753 10.1534 5.46493C10.3508 5.66233 10.4617 5.93005 10.4617 6.20925C10.4617 6.4884 10.3508 6.75612 10.1534 6.95352C9.95603 7.15092 9.6883 7.26182 9.40915 7.26182L5.19877 7.26182C4.91963 7.26182 4.6519 7.37272 4.4545 7.57012C4.2571 7.76752 4.1462 8.03524 4.1462 8.31439V18.5455L5.79875 17.0193C5.99291 16.8376 6.24862 16.736 6.51452 16.7351H15.7247C16.0038 16.7351 16.2715 16.6242 16.4689 16.4268C16.6663 16.2294 16.7772 15.9617 16.7772 15.6825V14.6299C16.7772 14.3508 16.8881 14.083 17.0855 13.8856C17.2829 13.6882 17.5507 13.5773 17.8298 13.5773C18.109 13.5773 18.3767 13.6882 18.5741 13.8856C18.7715 14.083 18.8824 14.3508 18.8824 14.6299V15.6825C18.8824 16.52 18.5497 17.3232 17.9575 17.9154C17.3653 18.5076 16.5622 18.8403 15.7247 18.8403H6.92503L3.76727 21.7138C3.57316 21.8956 3.31746 21.9971 3.0515 21.998C2.90715 21.9964 2.76437 21.9679 2.63048 21.9138C2.44218 21.8316 2.28206 21.6962 2.16985 21.5241C2.05764 21.352 1.99822 21.1509 1.99893 20.9454V8.31439C1.99888 7.89615 2.08194 7.48205 2.24326 7.09615C2.40459 6.7103 2.64094 6.36027 2.93868 6.06652C3.23637 5.77272 3.58943 5.54102 3.97745 5.3848C4.36543 5.22863 4.78059 5.15107 5.19877 5.15663ZM15.1141 12.5248H12.5669C12.2877 12.5248 12.02 12.4139 11.8226 12.2165C11.6252 12.0191 11.5143 11.7513 11.5143 11.4721V8.92492C11.5135 8.78639 11.5401 8.64906 11.5925 8.52078C11.6448 8.39255 11.722 8.27594 11.8196 8.17757L17.693 2.30413C17.8902 2.10808 18.157 1.99805 18.4351 1.99805C18.7132 1.99805 18.9799 2.10808 19.1771 2.30413L21.7349 4.86192C21.931 5.05912 22.041 5.32589 22.041 5.60397C22.041 5.88206 21.931 6.14882 21.7349 6.34607L15.8615 12.2195C15.7631 12.3171 15.6465 12.3942 15.5183 12.4466C15.39 12.499 15.2527 12.5255 15.1141 12.5248ZM18.4403 4.53559L13.6195 9.35645V10.4091H14.6721L19.5035 5.59872L18.4403 4.53559Z" fill="white"/>
</svg>
