<svg width="24" height="24" viewBox="0 0 24 24" fill="none" xmlns="http://www.w3.org/2000/svg">
<path d="M8.55694 2.75H4.68222C4.16976 2.75 3.6783 2.95357 3.31593 3.31593C2.95357 3.6783 2.75 4.16976 2.75 4.68222V8.55694C2.74999 9.07035 2.95324 9.56288 3.31531 9.92687C3.67738 10.2909 4.16882 10.4967 4.68222 10.4994H8.55694C9.07212 10.4994 9.56621 10.2948 9.9305 9.9305C10.2948 9.56621 10.4994 9.07212 10.4994 8.55694V4.68222C10.4967 4.16882 10.2909 3.67738 9.92687 3.31531C9.56288 2.95324 9.07035 2.74999 8.55694 2.75Z" stroke="#6F6F6F" stroke-width="2" stroke-linecap="round" stroke-linejoin="round"/>
<path d="M19.3183 2.75H15.4435C14.9301 2.74999 14.4376 2.95324 14.0736 3.31531C13.7096 3.67738 13.5038 4.16882 13.501 4.68222V8.55694C13.501 9.07212 13.7057 9.56621 14.07 9.9305C14.4343 10.2948 14.9284 10.4994 15.4435 10.4994H19.3183C19.8317 10.4967 20.3231 10.2909 20.6852 9.92687C21.0473 9.56288 21.2505 9.07035 21.2505 8.55694V4.68222C21.2505 4.16976 21.0469 3.6783 20.6846 3.31593C20.3222 2.95357 19.8307 2.75 19.3183 2.75Z" stroke="#6F6F6F" stroke-width="2" stroke-linecap="round" stroke-linejoin="round"/>
<path d="M19.3173 13.501H15.4425C14.9291 13.501 14.4366 13.7043 14.0726 14.0664C13.7086 14.4284 13.5028 14.9199 13.5 15.4333V19.308C13.5 19.8232 13.7047 20.3173 14.069 20.6815C14.4333 21.0458 14.9274 21.2505 15.4425 21.2505H19.3173C19.8307 21.2478 20.3221 21.0419 20.6842 20.6779C21.0463 20.3139 21.2495 19.8214 21.2495 19.308V15.4333C21.2495 14.9208 21.0459 14.4293 20.6836 14.067C20.3212 13.7046 19.8297 13.501 19.3173 13.501Z" stroke="#6F6F6F" stroke-width="2" stroke-linecap="round" stroke-linejoin="round"/>
<path d="M8.55694 13.501H4.68222C4.16882 13.5038 3.67738 13.7096 3.31531 14.0736C2.95324 14.4376 2.74999 14.9301 2.75 15.4435V19.3183C2.75 19.8307 2.95357 20.3222 3.31593 20.6846C3.6783 21.0469 4.16976 21.2505 4.68222 21.2505H8.55694C9.07035 21.2505 9.56288 21.0473 9.92687 20.6852C10.2909 20.3231 10.4967 19.8317 10.4994 19.3183V15.4435C10.4994 14.9284 10.2948 14.4343 9.9305 14.07C9.56621 13.7057 9.07212 13.501 8.55694 13.501Z" stroke="#6F6F6F" stroke-width="2" stroke-linecap="round" stroke-linejoin="round"/>
</svg>
