<svg width="24" height="24" viewBox="0 0 24 24" fill="none" xmlns="http://www.w3.org/2000/svg">
<path d="M5.97813 3.21289H12.9157C13.6516 3.21289 14.3575 3.50526 14.8779 4.02567C15.3983 4.54609 15.6907 5.25192 15.6907 5.98789V20.7879H3.20312V5.98789C3.20312 5.25192 3.49549 4.54609 4.0159 4.02567C4.53631 3.50526 5.24215 3.21289 5.97813 3.21289Z" stroke="white" stroke-width="2" stroke-linecap="round" stroke-linejoin="round"/>
<path d="M2.75 20.7871H21.25" stroke="white" stroke-width="2" stroke-linecap="round" stroke-linejoin="round"/>
<path d="M8.53105 14.3125H10.381C10.749 14.3125 11.102 14.4587 11.3622 14.7189C11.6224 14.9791 11.7685 15.332 11.7685 15.7V20.7875H7.14355V15.7C7.14355 15.332 7.28973 14.9791 7.54994 14.7189C7.81015 14.4587 8.16306 14.3125 8.53105 14.3125Z" stroke="white" stroke-width="2" stroke-linecap="round" stroke-linejoin="round"/>
<path d="M6.67188 6.91211H12.2219" stroke="white" stroke-width="2" stroke-linecap="round" stroke-linejoin="round"/>
<path d="M6.67188 10.6133H12.2219" stroke="white" stroke-width="2" stroke-linecap="round" stroke-linejoin="round"/>
<path d="M15.6914 9.22461H17.5414C18.2773 9.22461 18.9832 9.51697 19.5036 10.0374C20.024 10.5578 20.3164 11.2636 20.3164 11.9996V20.7871" stroke="white" stroke-width="2" stroke-linecap="round" stroke-linejoin="round"/>
</svg>
