<svg width="24" height="24" viewBox="0 0 24 24" fill="none" xmlns="http://www.w3.org/2000/svg">
<path d="M5.97813 3.21289H12.9157C13.6516 3.21289 14.3575 3.50526 14.8779 4.02567C15.3983 4.54609 15.6907 5.25192 15.6907 5.98789V20.7879H3.20312V5.98789C3.20312 5.25192 3.49549 4.54609 4.0159 4.02567C4.53631 3.50526 5.24215 3.21289 5.97813 3.21289Z" stroke="#6F6F6F" stroke-width="2" stroke-linecap="round" stroke-linejoin="round"/>
<path d="M2.75 20.7871H21.25" stroke="#6F6F6F" stroke-width="2" stroke-linecap="round" stroke-linejoin="round"/>
<path d="M8.5313 14.3125H10.3812C10.7492 14.3125 11.1022 14.4587 11.3624 14.7189C11.6226 14.9791 11.7687 15.332 11.7687 15.7V20.7875H7.1438V15.7C7.1438 15.332 7.28998 14.9791 7.55019 14.7189C7.8104 14.4587 8.16331 14.3125 8.5313 14.3125Z" stroke="#6F6F6F" stroke-width="2" stroke-linecap="round" stroke-linejoin="round"/>
<path d="M6.67188 6.91211H12.2219" stroke="#6F6F6F" stroke-width="2" stroke-linecap="round" stroke-linejoin="round"/>
<path d="M6.67212 10.6123H12.2221" stroke="#6F6F6F" stroke-width="2" stroke-linecap="round" stroke-linejoin="round"/>
<path d="M15.6914 9.22461H17.5414C18.2773 9.22461 18.9832 9.51697 19.5036 10.0374C20.024 10.5578 20.3164 11.2636 20.3164 11.9996V20.7871" stroke="#6F6F6F" stroke-width="2" stroke-linecap="round" stroke-linejoin="round"/>
</svg>
