<svg width="24" height="24" viewBox="0 0 24 24" fill="none" xmlns="http://www.w3.org/2000/svg">
<path d="M17.9283 19.6351H20.0659C20.2541 19.6383 20.4403 19.5959 20.6085 19.5114C20.7768 19.4269 20.922 19.3029 21.0318 19.1499C21.1415 18.997 21.2126 18.8197 21.2388 18.6333C21.2651 18.4469 21.2457 18.2569 21.1824 18.0796C20.6372 16.9127 19.7741 15.9231 18.6922 15.2244C17.6103 14.5256 16.3533 14.1459 15.0654 14.1289" stroke="#6F6F6F" stroke-width="2" stroke-linecap="round" stroke-linejoin="round"/>
<path d="M15.0654 11.3697C15.5467 11.3697 16.0232 11.275 16.4678 11.0908C16.9124 10.9066 17.3163 10.6367 17.6566 10.2964C17.9969 9.95614 18.2668 9.55217 18.451 9.10758C18.6351 8.66298 18.7299 8.18648 18.7299 7.70525C18.7312 7.22323 18.6373 6.74569 18.4537 6.29999C18.2701 5.8543 18.0004 5.44921 17.66 5.10792C17.3196 4.76663 16.9152 4.49585 16.47 4.3111C16.0248 4.12635 15.5475 4.03125 15.0654 4.03125" stroke="#6F6F6F" stroke-width="2" stroke-linecap="round" stroke-linejoin="round"/>
<path d="M14.0251 20.8272C14.3771 20.8264 14.7221 20.7282 15.0218 20.5435C15.3215 20.3588 15.5643 20.0948 15.7233 19.7808C15.8823 19.4667 15.9513 19.1147 15.9228 18.7639C15.8942 18.413 15.7692 18.0768 15.5615 17.7926C14.8329 16.8247 13.8947 16.0343 12.8171 15.4806C11.7396 14.927 10.5507 14.6244 9.33953 14.5957C8.1284 14.6244 6.93948 14.927 5.86193 15.4806C4.78437 16.0343 3.84614 16.8247 3.11758 17.7926C2.90988 18.0768 2.78484 18.413 2.75629 18.7639C2.72774 19.1147 2.79678 19.4667 2.95579 19.7808C3.11481 20.0948 3.35759 20.3588 3.6573 20.5435C3.957 20.7282 4.30195 20.8264 4.65398 20.8272H14.0251Z" stroke="#6F6F6F" stroke-width="2" stroke-linecap="round" stroke-linejoin="round"/>
<path d="M9.33963 11.4837C10.4414 11.4812 11.4973 11.0417 12.2755 10.2617C13.0537 9.4817 13.4908 8.42485 13.4908 7.32302C13.4908 6.22207 13.0534 5.16621 12.2749 4.38772C11.4964 3.60923 10.4406 3.17188 9.33963 3.17188C8.23868 3.17188 7.18282 3.60923 6.40433 4.38772C5.62584 5.16621 5.18848 6.22207 5.18848 7.32302C5.18848 8.42485 5.62553 9.4817 6.40375 10.2617C7.18197 11.0417 8.23781 11.4812 9.33963 11.4837Z" stroke="#6F6F6F" stroke-width="2" stroke-linecap="round" stroke-linejoin="round"/>
</svg>
