<svg width="24" height="24" viewBox="0 0 24 24" fill="none" xmlns="http://www.w3.org/2000/svg">
<path d="M12 21.5C17.2467 21.5 21.5 17.2467 21.5 12C21.5 6.7533 17.2467 2.5 12 2.5C6.7533 2.5 2.5 6.7533 2.5 12C2.5 17.2467 6.7533 21.5 12 21.5Z" stroke="white" stroke-width="2" stroke-linecap="round" stroke-linejoin="round"/>
<path d="M6.37402 19.6536C6.90748 18.6216 7.7145 17.7562 8.7068 17.1521C9.69909 16.548 10.8384 16.2285 12.0001 16.2285C13.1618 16.2285 14.3011 16.548 15.2934 17.1521C16.2858 17.7562 17.0927 18.6216 17.6262 19.6536" stroke="white" stroke-width="2" stroke-linecap="round" stroke-linejoin="round"/>
<path d="M12.0004 13.0556C13.8776 13.0556 15.3993 11.5339 15.3993 9.6567C15.3993 7.77954 13.8776 6.25781 12.0004 6.25781C10.1232 6.25781 8.60156 7.77954 8.60156 9.6567C8.60156 11.5339 10.1232 13.0556 12.0004 13.0556Z" stroke="white" stroke-width="2" stroke-linecap="round" stroke-linejoin="round"/>
</svg>
