<svg width="32" height="32" viewBox="0 0 32 32" fill="none" xmlns="http://www.w3.org/2000/svg">
<path d="M30.6881 13.983C30.6881 20.9068 25.0752 26.5198 18.1512 26.5198C11.2273 26.5198 5.61441 20.9068 5.61441 13.983C5.61441 7.05911 11.2273 1.44619 18.1512 1.44619C25.0752 1.44619 30.6881 7.05911 30.6881 13.983Z" fill="#F7F7F5" stroke="black" stroke-width="2.62286"/>
<path d="M24.7722 13.8488C24.7722 17.4312 21.8681 20.3354 18.2856 20.3354C14.7031 20.3354 11.799 17.4312 11.799 13.8488C11.799 10.2664 14.7031 7.36221 18.2856 7.36221C21.8681 7.36221 24.7722 10.2664 24.7722 13.8488Z" stroke="black" stroke-width="2.62286"/>
<path d="M18.0497 22.1842C18.0497 26.8062 14.3029 30.5531 9.68083 30.5531C5.0588 30.5531 1.31192 26.8062 1.31192 22.1842C1.31192 17.5622 5.0588 13.8153 9.68083 13.8153C14.3029 13.8153 18.0497 17.5622 18.0497 22.1842Z" fill="#F7F7F5" stroke="black" stroke-width="2.62286"/>
</svg>
