<svg width="14" height="15" viewBox="0 0 14 15" fill="none" xmlns="http://www.w3.org/2000/svg">
<path d="M7.00016 14.1668C6.07794 14.1668 5.21127 13.9918 4.40016 13.6418C3.58905 13.2918 2.8835 12.8168 2.2835 12.2168C1.6835 11.6168 1.2085 10.9113 0.858496 10.1002C0.508496 9.28905 0.333496 8.42238 0.333496 7.50016C0.333496 6.57794 0.508496 5.71127 0.858496 4.90016C1.2085 4.08905 1.6835 3.3835 2.2835 2.7835C2.8835 2.1835 3.58905 1.7085 4.40016 1.3585C5.21127 1.0085 6.07794 0.833496 7.00016 0.833496C7.92238 0.833496 8.78905 1.0085 9.60016 1.3585C10.4113 1.7085 11.1168 2.1835 11.7168 2.7835C12.3168 3.3835 12.7918 4.08905 13.1418 4.90016C13.4918 5.71127 13.6668 6.57794 13.6668 7.50016C13.6668 8.42238 13.4918 9.28905 13.1418 10.1002C12.7918 10.9113 12.3168 11.6168 11.7168 12.2168C11.1168 12.8168 10.4113 13.2918 9.60016 13.6418C8.78905 13.9918 7.92238 14.1668 7.00016 14.1668ZM7.00016 12.8335C7.60016 12.8335 8.17794 12.7363 8.7335 12.5418C9.28905 12.3474 9.80016 12.0668 10.2668 11.7002L2.80016 4.2335C2.4335 4.70016 2.15294 5.21127 1.9585 5.76683C1.76405 6.32238 1.66683 6.90016 1.66683 7.50016C1.66683 8.98905 2.1835 10.2502 3.21683 11.2835C4.25016 12.3168 5.51127 12.8335 7.00016 12.8335ZM11.2002 10.7668C11.5668 10.3002 11.8474 9.78905 12.0418 9.2335C12.2363 8.67794 12.3335 8.10016 12.3335 7.50016C12.3335 6.01127 11.8168 4.75016 10.7835 3.71683C9.75016 2.6835 8.48905 2.16683 7.00016 2.16683C6.40016 2.16683 5.82238 2.26405 5.26683 2.4585C4.71127 2.65294 4.20016 2.9335 3.7335 3.30016L11.2002 10.7668Z" fill="#333333"/>
</svg>
