<svg width="32" height="32" viewBox="0 0 32 32" fill="none" xmlns="http://www.w3.org/2000/svg">
<path d="M30.6881 13.983C30.6881 20.9068 25.0752 26.5198 18.1512 26.5198C11.2273 26.5198 5.61441 20.9068 5.61441 13.983C5.61441 7.05911 11.2273 1.44619 18.1512 1.44619C25.0752 1.44619 30.6881 7.05911 30.6881 13.983Z" fill="#F7F7F5" stroke="black" stroke-width="2.62286"/>
<path d="M24.7722 13.8483C24.7722 17.4308 21.8681 20.3349 18.2856 20.3349C14.7031 20.3349 11.799 17.4308 11.799 13.8483C11.799 10.2659 14.7031 7.36172 18.2856 7.36172C21.8681 7.36172 24.7722 10.2659 24.7722 13.8483Z" stroke="black" stroke-width="2.62286"/>
<path d="M18.0497 22.1847C18.0497 26.8067 14.3029 30.5536 9.68083 30.5536C5.0588 30.5536 1.31192 26.8067 1.31192 22.1847C1.31192 17.5627 5.0588 13.8158 9.68083 13.8158C14.3029 13.8158 18.0497 17.5627 18.0497 22.1847Z" fill="#F7F7F5" stroke="black" stroke-width="2.62286"/>
</svg>
